<?xml version="1.0" standalone="no"?><!DOCTYPE svg PUBLIC "-//W3C//DTD SVG 1.1//EN" "http://www.w3.org/Graphics/SVG/1.1/DTD/svg11.dtd"><svg t="1674248364811" class="icon" viewBox="0 0 1024 1024" version="1.1" xmlns="http://www.w3.org/2000/svg" p-id="2736" width="48" height="48" xmlns:xlink="http://www.w3.org/1999/xlink"><path d="M980.48 577.656V697.28a40 40 0 0 1-40 40H83.52a40 40 0 0 1-40-40V538.584A80.176 80.176 0 0 1 123.704 458.4h21.024a24 24 0 0 0 23.808-20.936l10.528-81.8a96 96 0 0 1 95.2-83.744h360.984a189.768 189.768 0 0 1 188.216 165.544 24 24 0 0 0 23.768 20.904h13.984a119.256 119.256 0 0 1 119.264 119.288z" fill="#EEBB4D" p-id="2737"></path><path d="M899.2 559.432h67.824a13.448 13.448 0 0 1 13.448 13.448v42.272H899.2a26.48 26.48 0 0 1-26.48-26.48v-2.752a26.48 26.48 0 0 1 26.48-26.48z" fill="#D6EFC7" p-id="2738"></path><path d="M512 271.92H274.28a96 96 0 0 0-95.2 83.744l-10.544 81.8a24 24 0 0 1-23.808 20.936h-21.024A80.176 80.176 0 0 0 43.52 538.584V697.28a40 40 0 0 0 40 40H512z" fill="#E0AA3D" p-id="2739"></path><path d="M92.792 615.16H43.52v-55.728h49.272a26.48 26.48 0 0 1 26.48 26.48v2.76a26.48 26.48 0 0 1-26.48 26.48z" fill="#C2DDB1" p-id="2740"></path><path d="M585.144 271.92h-252l11.328-48.2a32 32 0 0 1 31.52-26.4h166.304a32 32 0 0 1 31.512 26.4zM718.24 468.144a24 24 0 0 0 24-25.384l-1.048-18.128a83.36 83.36 0 0 0-82.704-72.712H566.856a24 24 0 0 0-24 24v68.224a24 24 0 0 0 24 24z" fill="#D6EFC7" p-id="2741"></path><path d="M481.144 436.144V375.92a24 24 0 0 0-24-24H281.232a24 24 0 0 0-23.856 21.384l-6.608 60.216a24 24 0 0 0 23.856 26.624h182.52a24 24 0 0 0 24-24z" fill="#C2DDB1" p-id="2742"></path><path d="M271.048 735.712m-130.6 0a130.6 130.6 0 1 0 261.2 0 130.6 130.6 0 1 0-261.2 0Z" fill="#0E3D36" p-id="2743"></path><path d="M271.048 782.152a46.4 46.4 0 1 1 46.448-46.44 46.488 46.488 0 0 1-46.448 46.44z" fill="#C2DDB1" p-id="2744"></path><path d="M752.952 735.712m-130.6 0a130.6 130.6 0 1 0 261.2 0 130.6 130.6 0 1 0-261.2 0Z" fill="#184D47" p-id="2745"></path><path d="M752.952 782.152a46.4 46.4 0 1 1 46.4-46.44 46.496 46.496 0 0 1-46.4 46.44z" fill="#D6EFC7" p-id="2746"></path><path d="M512 197.288H376a32 32 0 0 0-31.512 26.4l-11.344 48.232H512z" fill="#C2DDB1" p-id="2747"></path></svg>