<svg t="1674565931515" class="icon" viewBox="0 0 1024 1024" version="1.1" xmlns="http://www.w3.org/2000/svg" p-id="2055" width="128" height="128"><path d="M536 825.9c-41.6 0-82-8.2-120.1-24.2-36.7-15.5-69.7-37.8-98.1-66.1-28.3-28.3-50.6-61.3-66.1-98.1-16.1-38-24.2-78.4-24.2-120.1 0-41.6 8.2-82 24.2-120.1 15.5-36.7 37.8-69.7 66.1-98.1 28.3-28.3 61.3-50.6 98.1-66.1 38-16.1 78.4-24.2 120.1-24.2 41.6 0 82 8.2 120.1 24.2 36.7 15.5 69.7 37.8 98.1 66.1 28.3 28.3 50.6 61.3 66.1 98.1 16.1 38 24.2 78.4 24.2 120.1 0 41.6-8.2 82-24.2 120.1-15.5 36.7-37.8 69.7-66.1 98.1-28.3 28.3-61.3 50.6-98.1 66.1-38 16-78.4 24.2-120.1 24.2z" fill="#B9E7FC" p-id="2056"></path><path d="M536 214c167.6 0 303.4 135.8 303.4 303.4S703.6 820.8 536 820.8 232.6 685 232.6 517.4 368.4 214 536 214m0-10.2c-42.3 0-83.4 8.3-122.1 24.6-37.3 15.8-70.9 38.4-99.7 67.2-28.8 28.8-51.4 62.3-67.2 99.7-16.4 38.7-24.6 79.7-24.6 122.1s8.3 83.4 24.6 122.1c15.8 37.3 38.4 70.9 67.2 99.7 28.8 28.8 62.3 51.4 99.7 67.2C452.6 822.7 493.7 831 536 831s83.4-8.3 122.1-24.6c37.3-15.8 70.9-38.4 99.7-67.2 28.8-28.8 51.4-62.3 67.2-99.7 16.4-38.7 24.6-79.7 24.6-122.1S841.3 434 825 395.3c-15.8-37.3-38.4-70.9-67.2-99.7-28.8-28.8-62.3-51.4-99.7-67.2-38.7-16.3-79.8-24.6-122.1-24.6z" fill="#6D4120" p-id="2057"></path><path d="M536 507.7m-270.7 0a270.7 270.7 0 1 0 541.4 0 270.7 270.7 0 1 0-541.4 0Z" fill="#9AD6F7" p-id="2058"></path><path d="M543.3 671.2c-52.5 0-101.8-20.4-139-57.6-37.1-37.1-57.6-86.5-57.6-139s20.4-101.8 57.6-139 86.5-57.6 139-57.6 101.8 20.4 139 57.6c37.1 37.1 57.6 86.5 57.6 139s-20.4 101.8-57.6 139c-37.1 37.1-86.5 57.6-139 57.6z" fill="#95E6FC" p-id="2059"></path><path d="M543.3 283.2c105.7 0 191.4 85.7 191.4 191.4S649 666 543.3 666s-191.4-85.7-191.4-191.4 85.7-191.4 191.4-191.4m0-10.2c-27.2 0-53.6 5.3-78.5 15.8-24 10.2-45.6 24.7-64.1 43.2s-33 40.1-43.2 64.1c-10.5 24.9-15.8 51.3-15.8 78.5 0 27.2 5.3 53.6 15.8 78.5 10.2 24 24.7 45.6 43.2 64.1s40.1 33 64.1 43.2c24.9 10.5 51.3 15.8 78.5 15.8 27.2 0 53.6-5.3 78.5-15.8 24-10.2 45.6-24.7 64.1-43.2 18.5-18.5 33-40.1 43.2-64.1 10.5-24.9 15.8-51.3 15.8-78.5 0-27.2-5.3-53.6-15.8-78.5-10.2-24-24.7-45.6-43.2-64.1-18.5-18.5-40.1-33-64.1-43.2-24.8-10.4-51.2-15.8-78.5-15.8z" fill="#6D4120" p-id="2060"></path><path d="M543.6 284.3c-24.9 0-48.7 4.8-70.5 13.4 70.8 28.1 120.9 97.2 120.9 178s-50.1 149.9-120.9 178c21.8 8.7 45.6 13.4 70.5 13.4 105.7 0 191.4-85.7 191.4-191.4s-85.7-191.4-191.4-191.4z" fill="#30E2F9" p-id="2061"></path><path d="M414.8 678.8c-9.7 0-37.7-2.8-83.2-8.4-13.1-1.6-24.6-9-31.4-20.3-26.2-43-40-92.5-40-143.1v-0.3c0-19.4 13.2-36.4 32.1-41.3 8.4-2.2 16.5-3.3 24.2-3.3 20 0 37 7.2 50.4 21.5 10 10.6 23.8 16 41.2 16 8.5 0 39.4-1.8 80-25.5 1-0.6 2.1-1.3 3-2 5-3.7 23.6-16 50.8-16 26.2 0 52.5 11.1 78.2 32.9 15.6 13.2 33 19.9 51.9 19.9 40.4 0 76.9-29.9 90.8-42.8 4.7-4.4 10.4-7.7 16.5-9.6 6.5-2 11.9-3 16.1-3 4.6 0 8 1.2 10.2 3.7 1.3 1.5 2.8 4 2.3 8v0.2c1.2 3.4 1.7 6.9 2 10.1 1.2 10.3 1.8 20.9 1.8 31.3 0 30-4.8 59.4-14.2 87.6-3 9-9.1 16.9-17.2 22.2-12.9 8.5-17.6 10.1-20.2 10.6-15.5 3.1-319.2 51.6-345.3 51.6z" fill="#FCFCFC" p-id="2062"></path><path d="M795.5 458.8c4.6 0 8 1.5 7.5 6.1-0.1 0.9 0 1.7 0.2 2.4 1 2.9 1.5 6 1.8 9.1 1.1 10.1 1.7 20.3 1.7 30.7 0 30.1-4.9 59-13.9 86-2.7 8-8.1 14.9-15.1 19.5-8.2 5.4-14.9 9.2-18.3 9.8-13.5 2.5-318.8 51.3-344.6 51.3-11.1 0-46.2-3.9-82.6-8.3-11.5-1.4-21.7-8-27.7-17.9-24.9-41-39.2-89-39.2-140.5v-0.3c0-17.1 11.7-32.1 28.3-36.4 7.2-1.9 15-3.1 23-3.1 16 0 32.6 5 46.7 19.9 12.2 13 28.3 17.6 44.9 17.6 35.2 0 73-20.7 82.6-26.2 1.2-0.7 2.4-1.5 3.5-2.3 4.6-3.4 22-15 47.8-15 20.5 0 46.2 7.3 75 31.7 18.1 15.4 37 21.1 55.2 21.1 42.5 0 80.7-31.6 94.2-44.2 4.2-3.9 9.1-6.8 14.5-8.4 4.5-1.2 10.1-2.6 14.5-2.6m0-10.2c-4.7 0-10.6 1.1-17.6 3.2-6.8 2.1-13.2 5.8-18.5 10.7-6 5.6-18.5 16.3-34.4 25.4-18.6 10.6-36.4 16-52.9 16-17.6 0-34-6.3-48.6-18.7-26.7-22.6-54.1-34.1-81.5-34.1-28.8 0-48.5 13-53.9 17-0.8 0.6-1.7 1.2-2.6 1.7-7.1 4.2-44.3 24.9-77.4 24.9-16.1 0-28.4-4.7-37.5-14.4-14.4-15.4-32.6-23.1-54.1-23.1-8.1 0-16.7 1.1-25.5 3.4-21.2 5.4-35.9 24.4-36 46.2v0.3c0 51.5 14.1 101.9 40.7 145.8 7.7 12.6 20.5 20.9 35.2 22.7 46.4 5.7 73.8 8.4 83.8 8.4 11.4 0 71.4-8.4 178.4-24.8 78.8-12.2 160.6-25.3 168-26.6 3.3-0.6 8.5-2.4 22.1-11.3 9-5.9 15.8-14.7 19.2-24.8 9.6-28.7 14.5-58.7 14.5-89.2 0-10.6-0.6-21.4-1.8-31.9-0.3-3-0.8-6.6-2-10.1 0.2-4.2-1.1-8.1-3.7-11-3.1-3.9-7.8-5.7-13.9-5.7z" fill="#6D4120" p-id="2063"></path><path d="M532.2 797.9c-70.9 0-139-25.9-191.9-73-52.4-46.7-86.1-110.6-94.7-179.9-0.6-4.5 0.8-9.1 3.9-12.5 3-3.4 7.3-5.3 11.8-5.3h541.8c4.5 0 8.8 1.9 11.8 5.3s4.4 8 3.9 12.5c-8.6 69.3-42.2 133.2-94.7 179.9-52.8 47.1-121 73-191.9 73z" fill="#2C82FF" p-id="2064"></path><path d="M803.1 532.3c6.5 0 11.4 5.7 10.6 12.1-17.4 140-136.8 248.4-281.5 248.4S268.1 684.4 250.7 544.4c-0.8-6.4 4.2-12.1 10.6-12.1h541.8m0-10.2H261.4c-6 0-11.7 2.6-15.6 7.1-4 4.5-5.8 10.5-5.1 16.5 8.7 70.6 43 135.6 96.3 183.1 26.3 23.4 56.3 41.8 89 54.5 33.9 13.1 69.6 19.8 106.3 19.8s72.4-6.7 106.3-19.8c32.7-12.7 62.7-31 89-54.5 53.4-47.5 87.6-112.5 96.3-183.1 0.7-6-1.1-12-5.1-16.5-4-4.5-9.7-7.1-15.7-7.1z" fill="#6D4120" p-id="2065"></path><path d="M254.2 566.3c1.9-1.7 4.4-2.7 7.1-2.7h541.8c2.8 0 5.3 1 7.1 2.7 1.4-7.1 2.6-14.2 3.5-21.5 0.8-6.4-4.2-12.1-10.6-12.1H261.4c-6.5 0-11.4 5.7-10.6 12.1 0.8 7.2 2 14.4 3.4 21.5z" fill="#2276FC" p-id="2066"></path><path d="M560.7 760.8c-137.1 0-251.5-97.3-277.9-226.6h-21.4c-6.5 0-11.4 5.7-10.6 12.1 17.4 140 136.8 248.4 281.5 248.4 95.2 0 179.4-46.9 230.9-118.8-51.5 52.4-123.2 84.9-202.5 84.9z" fill="#2276FC" p-id="2067"></path><path d="M258.7 536h-0.6c-3.4-0.4-6.9-1.2-10.2-2.2-14.8-4.6-26.9-14.6-34.1-28.3-7.2-13.7-8.7-29.3-4.1-44.1 0.7-2.4 1.6-4.7 2.7-7 0.8-1.8 2.7-3 4.6-3h0.6c3.4 0.4 6.9 1.2 10.2 2.2 14.8 4.6 26.9 14.6 34.1 28.3 7.2 13.7 8.7 29.3 4.1 44.1-0.7 2.4-1.6 4.7-2.7 7-0.8 1.8-2.6 3-4.6 3z" fill="#2C82FF" p-id="2068"></path><path d="M217 456.5c3.1 0.4 6.2 1 9.3 2 27.8 8.6 43.4 38.2 34.8 66-0.7 2.2-1.5 4.3-2.4 6.4-3.1-0.4-6.2-1-9.3-2-27.8-8.6-43.4-38.2-34.8-66 0.7-2.2 1.5-4.4 2.4-6.4m0-10.2c-3.9 0-7.6 2.3-9.3 5.9-1.1 2.5-2.1 5-2.9 7.6-10.3 33.2 8.4 68.5 41.5 78.8 3.6 1.1 7.3 1.9 11.1 2.4 0.4 0.1 0.8 0.1 1.2 0.1 3.9 0 7.6-2.3 9.3-5.9 1.1-2.5 2.1-5 2.9-7.6 10.3-33.2-8.4-68.5-41.5-78.8-3.6-1.1-7.3-1.9-11.1-2.4-0.4-0.1-0.8-0.1-1.2-0.1z" fill="#6D4120" p-id="2069"></path><path d="M226.3 458.5c-3.1-1-6.2-1.6-9.3-2-0.9 2-1.8 4.2-2.4 6.4v0.1c25.6 9.9 39.5 38 31.3 64.6 1.1 0.4 2.3 0.9 3.5 1.2 3.1 1 6.2 1.6 9.3 2 0.9-2 1.8-4.2 2.4-6.4 8.6-27.7-6.9-57.3-34.8-65.9z" fill="#1064DD" p-id="2070"></path><path d="M214.4 563.9c-14.5 0-28.4-5.4-39.1-15.2-1.8-1.7-3.6-3.5-5.2-5.4-1.4-1.7-1.6-4.1-0.4-6 1.8-2.9 4-5.7 6.3-8.3 10.9-11.9 26.5-18.7 42.6-18.7 14.5 0 28.4 5.4 39.1 15.2 1.8 1.7 3.6 3.5 5.2 5.4 1.4 1.7 1.6 4.1 0.4 6-1.8 2.9-4 5.7-6.3 8.3-10.8 11.9-26.4 18.7-42.6 18.7z" fill="#2C82FF" p-id="2071"></path><path d="M218.7 515.4c12.7 0 25.5 4.6 35.7 13.9 1.7 1.6 3.3 3.2 4.7 4.9-1.7 2.6-3.6 5.2-5.8 7.5-10.4 11.3-24.6 17.1-38.9 17.1-12.7 0-25.5-4.6-35.7-13.9-1.7-1.6-3.3-3.2-4.7-4.9 1.7-2.6 3.6-5.2 5.8-7.5 10.4-11.4 24.6-17.1 38.9-17.1m0-10.2c-17.6 0-34.5 7.4-46.4 20.4-2.6 2.8-4.9 5.8-6.9 9-2.4 3.7-2 8.6 0.8 12 1.7 2.1 3.6 4 5.6 5.9 11.6 10.7 26.8 16.6 42.6 16.6 17.6 0 34.5-7.4 46.4-20.4 2.6-2.8 4.9-5.8 6.9-9 2.4-3.7 2-8.6-0.8-12-1.7-2.1-3.6-4-5.6-5.9-11.7-10.7-26.8-16.6-42.6-16.6z" fill="#6D4120" p-id="2072"></path><path d="M254.4 529.6c-0.6-0.5-1.1-1-1.7-1.5-19.3 20.2-50.9 21.9-72.1 4l-0.7 0.7c-2.2 2.4-4.1 4.9-5.8 7.5 1.4 1.7 3 3.4 4.7 4.9 21.5 19.7 54.9 18.3 74.6-3.2 2.2-2.4 4.1-4.9 5.8-7.5-1.5-1.7-3.1-3.3-4.8-4.9z" fill="#1064DD" p-id="2073"></path><path d="M533.9 802.8c-17 0-34.1-1.5-50.7-4.4-1.3-0.2-2.5-1-3.3-2.1-0.8-1.1-1.1-2.5-0.8-3.8 13.7-73.6 53.5-127.1 118.3-159 55.5-27.4 118.7-33.1 161.9-33.1 14.5 0 29 0.6 43 1.9 1.6 0.1 3 1 3.8 2.3 0.9 1.3 1 3 0.5 4.4-9.7 27.9-23.7 54.1-41.4 77.9-17.6 23.5-38.6 44.1-62.3 61.3-49.3 35.7-107.8 54.6-169 54.6z" fill="#FFFFFF" p-id="2074"></path><path d="M759.4 605.4c17 0 31.7 0.9 42.6 1.8-38.6 110.9-144 190.5-268 190.5-17 0-33.6-1.5-49.8-4.4C514.7 629.6 670 605.4 759.4 605.4m0-10.2c-27.2 0-53.5 2.2-78.2 6.5-31.8 5.6-60.8 14.7-86 27.1-30.6 15.1-56 35.1-75.7 59.7-22.6 28.3-37.9 62.9-45.4 102.9-0.5 2.7 0.1 5.4 1.6 7.7 1.5 2.2 3.9 3.8 6.6 4.2 16.9 3 34.2 4.5 51.5 4.5 31.4 0 62.4-4.9 92-14.7 28.6-9.4 55.6-23.2 80.1-40.9 24.2-17.5 45.5-38.5 63.4-62.4 18.1-24.2 32.3-50.9 42.2-79.3 1-3 0.6-6.2-1.1-8.9-1.7-2.6-4.5-4.3-7.6-4.6-14.1-1.2-28.7-1.8-43.4-1.8z" fill="#6D4120" p-id="2075"></path><path d="M692.5 610.3c4.2 0.3 8 0.6 11.5 0.9-32.1 92.2-110.5 162.8-207.3 183.9 12.5 1.7 25.3 2.6 38.2 2.6 124 0 229.4-79.6 268-190.5-23.7-2.1-65-3.8-110.4 3.1z" fill="#D7E7FF" p-id="2076"></path><path d="M609.5 830.3c-1.9 0-3.6-1-4.5-2.8-1.6-3.1-2.9-6.3-3.9-9.6-4.5-14.8-3-30.4 4.2-44.1 7.2-13.7 19.4-23.7 34.1-28.2 2.4-0.7 4.8-1.3 7.3-1.7 0.3 0 0.6-0.1 0.9-0.1 1.9 0 3.6 1 4.5 2.8 1.6 3.1 2.9 6.3 3.9 9.6 4.5 14.8 3 30.4-4.2 44.1-7.2 13.7-19.4 23.7-34.1 28.2-2.4 0.7-4.8 1.3-7.3 1.7-0.3 0-0.6 0.1-0.9 0.1z" fill="#2C82FF" p-id="2077"></path><path d="M647.6 748.9c1.4 2.8 2.6 5.7 3.6 8.8 8.6 27.9-7.1 57.4-35 65.9-2.2 0.7-4.4 1.2-6.6 1.6-1.4-2.8-2.6-5.7-3.6-8.8-8.6-27.9 7.1-57.4 35-65.9 2.1-0.7 4.4-1.3 6.6-1.6m0-10.2c-0.6 0-1.1 0-1.7 0.1-2.7 0.5-5.3 1.1-7.9 1.9-33.2 10.2-51.9 45.5-41.7 78.6 1.1 3.6 2.5 7.1 4.3 10.5 1.8 3.4 5.3 5.5 9 5.5 0.6 0 1.1 0 1.7-0.1 2.7-0.5 5.3-1.1 7.9-1.9 33.2-10.2 51.9-45.5 41.7-78.6-1.1-3.6-2.5-7.1-4.3-10.5-1.8-3.4-5.3-5.5-9-5.5z" fill="#6D4120" p-id="2078"></path><path d="M651.6 757.7c-0.9-3.1-2.2-6-3.6-8.8-2.2 0.4-4.4 0.9-6.6 1.6-1.3 0.4-2.6 0.9-3.8 1.3 7.1 26.1-6.7 53.2-31.6 63 0.1 0.5 0.3 1.1 0.4 1.6 0.9 3.1 2.2 6 3.6 8.8 2.2-0.4 4.4-0.9 6.6-1.6 27.9-8.6 43.5-38.1 35-65.9z" fill="#1064DD" p-id="2079"></path><path d="M720.5 587.8c-18.5 0-33.6-15.1-33.6-33.6s15.1-33.6 33.6-33.6 33.6 15.1 33.6 33.6-15.1 33.6-33.6 33.6z" fill="#03218E" p-id="2080"></path><path d="M720.5 525.7c15.7 0 28.5 12.8 28.5 28.5s-12.8 28.5-28.5 28.5S692 570 692 554.2s12.7-28.5 28.5-28.5m0-10.1c-21.3 0-38.7 17.3-38.7 38.7s17.3 38.7 38.7 38.7 38.7-17.3 38.7-38.7-17.4-38.7-38.7-38.7z" fill="#6D4120" p-id="2081"></path><path d="M720.5 525.7c-2.8 0-5.6 0.4-8.2 1.2 11.3 3.8 19.5 14.4 19.5 27 0 12.9-8.6 23.8-20.3 27.3 2.8 0.9 5.9 1.5 9 1.5 15.7 0 28.5-12.8 28.5-28.5s-12.8-28.5-28.5-28.5z" fill="#FFFFFF" p-id="2082"></path><path d="M720.5 549.5m-5.5 0a5.5 5.5 0 1 0 11 0 5.5 5.5 0 1 0-11 0Z" fill="#B9E7FC" p-id="2083"></path></svg>
