<?xml version="1.0" standalone="no"?><!DOCTYPE svg PUBLIC "-//W3C//DTD SVG 1.1//EN" "http://www.w3.org/Graphics/SVG/1.1/DTD/svg11.dtd"><svg t="1674248448076" class="icon" viewBox="0 0 1024 1024" version="1.1" xmlns="http://www.w3.org/2000/svg" p-id="3782" xmlns:xlink="http://www.w3.org/1999/xlink" width="48" height="48"><path d="M537.429333 24.746667c-9.386667-0.512-18.090667-0.853333-25.770666-0.853334-205.994667 0-380.416 153.770667-405.674667 357.546667-12.458667 100.010667 12.629333 200.704 70.656 283.648 57.856 82.602667 143.530667 140.8 241.322667 163.84l10.069333 2.389333 83.968 145.066667 83.968-145.066667 10.069333-2.389333c89.088-20.992 169.472-71.850667 226.474667-143.530667 57.173333-71.850667 88.746667-161.792 88.746667-253.44 0-215.04-168.618667-393.898667-383.829334-407.210666z" fill="#070F1B" p-id="3783"></path><path d="M538.794667 0.853333c-8.874667-0.512-18.090667-0.853333-27.136-0.853333C293.717333 0 109.056 162.645333 82.261333 378.538667c-27.306667 219.306667 116.565333 423.424 330.24 473.6l62.634667 108.202666 36.864 63.658667 36.864-63.658667 62.634667-108.202666C805.888 806.4 945.152 632.832 945.152 431.957333 945.152 204.288 766.805333 15.018667 538.794667 0.853333z m67.242666 828.074667l-10.069333 2.389333-83.968 145.066667-83.968-145.066667-10.069333-2.389333c-97.792-23.04-183.466667-81.066667-241.322667-163.84-58.026667-82.944-83.114667-183.637333-70.656-283.648C131.242667 177.664 305.664 23.893333 511.658667 23.893333c7.68 0 16.384 0.341333 25.770666 0.853334 215.210667 13.312 383.829333 192.341333 383.829334 407.210666 0 91.477333-31.573333 181.589333-88.746667 253.44-57.002667 71.509333-137.386667 122.538667-226.474667 143.530667z" fill="#EB2326" p-id="3784"></path><path d="M713.386667 286.037333L626.858667 230.4c-3.754667-2.389333-8.533333-2.56-12.458667-0.512-3.925333 2.218667-6.314667 6.314667-6.314667 10.752v2.56c0 8.704 4.437333 16.896 11.776 21.504l6.314667 4.096c11.093333 6.997333 17.578667 19.114667 17.578667 32.256v44.373333c0 23.893333 19.456 43.349333 43.349333 43.349334 6.656 0 12.117333 5.461333 12.117333 12.117333v200.192c0 11.776-9.557333 21.504-21.504 21.504h-15.018666c-3.072 0-6.144-1.194667-8.362667-3.413333s-3.413333-5.290667-3.413333-8.362667v-133.290667c0-26.794667-21.845333-48.64-48.64-48.64h-9.386667c-4.608 0-9.045333-1.877333-12.288-5.12-3.242667-3.242667-5.12-7.68-5.12-12.288v-146.090666c0-21.333333-17.237333-38.570667-38.570667-38.570667H333.312c-21.333333 0-38.570667 17.237333-38.570667 38.570667v378.538666c0 9.728 7.850667 17.578667 17.578667 17.578667H558.421333c9.728 0 17.578667-7.850667 17.578667-17.578667v-158.72c0-9.557333 7.850667-17.408 17.408-17.408h1.194667c9.557333 0 17.408 7.850667 17.408 17.408V634.88c0 14.677333 11.946667 26.624 26.624 26.624l77.482666 0.170667c12.8 0 23.04-10.410667 23.04-23.04l-0.341333-305.664c-0.170667-19.114667-9.728-36.693333-25.429333-46.933334zM500.736 465.578667c0 5.802667-4.778667 10.581333-10.581333 10.581333h-110.592c-5.802667 0-10.581333-4.778667-10.581334-10.581333v-29.525334c0-5.802667 4.778667-10.581333 10.581334-10.581333H490.154667c5.802667 0 10.581333 4.778667 10.581333 10.581333v29.525334z m30.208-96.768c0 5.802667-4.778667 10.581333-10.581333 10.581333h-170.496c-5.802667 0-10.581333-4.778667-10.581334-10.581333v-84.309334c0-5.802667 4.778667-10.581333 10.581334-10.581333h170.496c5.802667 0 10.581333 4.778667 10.581333 10.581333v84.309334z" fill="#EB2326" p-id="3785"></path></svg>